<?xml version="1.0" encoding="UTF-8" standalone="no"?>
<!-- Created with Inkscape (http://www.inkscape.org/) -->

<svg
   width="210mm"
   height="297mm"
   viewBox="0 0 210 297"
   version="1.1"
   id="svg1"
   inkscape:version="1.4.2 (f4327f4, 2025-05-13)"
   sodipodi:docname="drawing-1.svg"
   xmlns:inkscape="http://www.inkscape.org/namespaces/inkscape"
   xmlns:sodipodi="http://sodipodi.sourceforge.net/DTD/sodipodi-0.dtd"
   xmlns="http://www.w3.org/2000/svg"
   xmlns:svg="http://www.w3.org/2000/svg">
  <sodipodi:namedview
     id="namedview1"
     pagecolor="#ffffff"
     bordercolor="#000000"
     borderopacity="0.25"
     inkscape:showpageshadow="2"
     inkscape:pageopacity="0.0"
     inkscape:pagecheckerboard="0"
     inkscape:deskcolor="#d1d1d1"
     inkscape:document-units="mm"
     inkscape:zoom="1.4011667"
     inkscape:cx="397.16902"
     inkscape:cy="559.89055"
     inkscape:window-width="1570"
     inkscape:window-height="1055"
     inkscape:window-x="2081"
     inkscape:window-y="171"
     inkscape:window-maximized="0"
     inkscape:current-layer="layer1" />
  <defs
     id="defs1">
    <rect
       x="-2.7048667"
       y="225.85637"
       width="105.4898"
       height="250.20017"
       id="rect1" />
  </defs>
  <g
     inkscape:label="Layer 1"
     inkscape:groupmode="layer"
     id="layer1">
    <text
       xml:space="preserve"
       transform="scale(0.26458333)"
       id="text1"
       style="font-size:192px;text-align:start;writing-mode:lr-tb;direction:ltr;white-space:pre;shape-inside:url(#rect1);fill:none;stroke:#000000;stroke-width:1.00157;paint-order:stroke fill markers"><tspan
         x="-2.7050781"
         y="651.22406"
         id="tspan3"><tspan
           dx="0 87.28125 121.5 100.03125 75.65625 67.5 121.40625 115.3125"
           id="tspan2">Just Eat</tspan></tspan></text>
    <path
       style="font-size:22.5063px;font-family:'SLF Melody';-inkscape-font-specification:'SLF Melody';fill:none;stroke:#000000;stroke-width:0.117405;paint-order:stroke fill markers"
       d="m 49.124734,116.55745 q 0.900252,-0.99028 1.597947,-2.38567 0.720202,-1.39539 0.720202,-2.76827 0,-0.72021 -0.24757,-1.73299 -0.247569,-1.01278 -0.630176,-1.62045 -0.787721,-1.23785 -2.183111,-1.66547 -1.372884,-0.42762 -2.745769,-0.42762 -2.385668,0 -4.883867,1.23785 -2.498199,1.23784 -4.568779,3.2184 -2.048073,1.95805 -3.375945,4.41123 -1.305365,2.43068 -1.305365,4.83886 0,1.71048 0.720201,2.99334 0.720202,1.28285 1.89053,2.13809 1.170327,0.87775 2.655743,1.30537 1.507922,0.42762 3.038351,0.42762 1.147821,0 2.43068,-0.22506 1.305365,-0.20256 2.588224,-0.58517 1.28286,-0.38261 2.4982,-0.90025 1.21534,-0.49514 2.205617,-1.10281 1.620454,-0.96777 3.128376,-2.20562 1.530428,-1.26035 2.903313,-2.54321 3.420957,-3.19589 6.234245,-6.84191 2.835793,-3.64602 5.333993,-7.56212 1.282859,-2.00306 2.655743,-4.07364 1.395391,-2.093086 2.565718,-4.276197 1.170328,-2.205618 1.958048,-4.523767 0.810227,-2.318148 0.900252,-4.771335 -0.09002,2.453187 -0.900252,4.771335 -0.78772,2.318149 -1.958048,4.523767 -1.170327,2.183111 -2.565718,4.276197 -1.372884,2.07058 -2.655743,4.07364 -2.4982,3.9161 -5.333993,7.56212 -2.813288,3.64602 -6.234245,6.84191 -1.372885,1.28286 -2.903313,2.54321 -1.507922,1.23785 -3.128376,2.20562 -0.990277,0.60767 -2.205617,1.10281 -1.21534,0.51764 -2.4982,0.90025 -1.282859,0.38261 -2.588224,0.58517 -1.282859,0.22506 -2.43068,0.22506 -1.530429,0 -3.038351,-0.42762 -1.485416,-0.42762 -2.655743,-1.30537 -1.170328,-0.85524 -1.89053,-2.13809 -0.720201,-1.28286 -0.720201,-2.99334 0,-2.40818 1.305365,-4.83886 1.327872,-2.45318 3.375945,-4.41123 2.07058,-1.98056 4.568779,-3.2184 2.498199,-1.23785 4.883867,-1.23785 1.372885,0 2.745769,0.42762 1.39539,0.42762 2.183111,1.66547 0.382607,0.60767 0.630176,1.62045 0.24757,1.01278 0.24757,1.73299 0,1.37288 -0.720202,2.76827 -0.697695,1.39539 -1.597947,2.38567 z M 81.556312,92.790795 q 0.04501,-0.270075 0.04501,-0.405113 0,-0.742708 -0.607671,-1.305366 -0.60767,-0.562657 -1.575441,-0.990277 -0.945264,-0.42762 -2.138098,-0.720201 -1.170328,-0.292582 -2.318149,-0.472633 -1.125315,-0.18005 -2.115592,-0.247569 -0.967771,-0.09002 -1.507922,-0.09002 -1.372885,0 -2.745769,0.135038 -1.350378,0.135037 -2.700756,0.450126 -1.012783,0.247569 -2.295642,0.697695 -1.28286,0.42762 -2.430681,1.125315 -1.125315,0.675189 -1.913035,1.64296 -0.787721,0.945264 -0.787721,2.205617 0,1.192834 0.832733,2.025567 0.832733,0.810227 1.823011,1.282859 -0.990278,-0.472632 -1.823011,-1.282859 -0.832733,-0.832733 -0.832733,-2.025567 0,-1.260353 0.787721,-2.205617 0.78772,-0.967771 1.913035,-1.64296 1.147821,-0.697695 2.430681,-1.125315 1.282859,-0.450126 2.295642,-0.697695 1.350378,-0.315089 2.700756,-0.450126 1.372884,-0.135038 2.745769,-0.135038 0.540151,0 1.507922,0.09002 0.990277,0.06752 2.115592,0.247569 1.147821,0.180051 2.318149,0.472633 1.192834,0.292581 2.138098,0.720201 0.967771,0.42762 1.575441,0.990277 0.607671,0.562658 0.607671,1.305366 0,0.135038 -0.04501,0.405113 z m 14.674124,19.490455 q -0.562658,0.6977 -1.507922,1.778 -0.945265,1.05779 -2.115593,2.25063 -1.147821,1.17033 -2.453186,2.36316 -1.305366,1.17033 -2.588225,2.11559 -1.260353,0.94527 -2.453186,1.55294 -1.170328,0.58516 -2.07058,0.58516 -1.192834,0 -1.710479,-0.69769 -0.517645,-0.72021 -0.517645,-1.82301 0,-1.55294 0.787721,-3.556 0.810227,-2.00306 2.00306,-4.00612 1.192834,-2.00306 2.588225,-3.80357 1.395391,-1.82301 2.565718,-2.99333 0.337595,-0.3601 0.720202,-0.65269 0.405113,-0.31509 0.630176,-0.76521 l -0.04501,-0.13504 q -0.24757,0 -0.405114,0.045 -0.157544,0.0225 -0.337594,0.20256 -0.585164,0.51765 -1.102809,1.12532 -0.495139,0.60767 -1.012784,1.19283 -1.237846,1.46291 -2.43068,2.94832 -1.170328,1.48542 -2.43068,2.92582 -1.057796,1.21534 -2.160605,2.34066 -1.080302,1.12531 -2.228124,2.27314 -0.765214,0.76521 -1.755491,1.77799 -0.967771,1.01279 -2.07058,1.91304 -1.102808,0.90025 -2.295642,1.50792 -1.170328,0.63018 -2.340656,0.63018 -0.247569,0 -0.675189,-0.15755 -0.450126,-0.15754 -0.630176,-0.29258 -0.450126,-0.38261 -0.517645,-1.0578 -0.09002,-0.67518 -0.09002,-1.21534 0,-1.35037 0.472632,-2.58822 0.450126,-1.23785 1.080303,-2.38567 1.282859,-2.36316 2.745768,-4.77133 1.46291,-2.43068 3.353439,-4.36623 0.112531,-0.11253 0.495139,-0.45012 0.382607,-0.3376 0.810226,-0.67519 0.42762,-0.3601 0.765215,-0.65268 0.337594,-0.29259 0.337594,-0.3376 l -0.06752,-0.09 q -0.09002,-0.045 -0.18005,-0.045 -0.315088,0 -0.922759,0.49514 -0.585163,0.49514 -1.305365,1.28286 -0.720202,0.76522 -1.507922,1.71048 -0.765214,0.94527 -1.485416,1.84552 -0.697695,0.87774 -1.260353,1.59794 -0.540151,0.72021 -0.78772,1.0578 0.270075,-0.33759 0.810227,-1.0578 0.540151,-0.7202 1.237846,-1.59794 0.720202,-0.90025 1.485416,-1.84552 0.78772,-0.94526 1.507922,-1.71048 0.720202,-0.78772 1.305365,-1.28286 0.607671,-0.49514 0.922759,-0.49514 0.09002,0 0.18005,0.045 l 0.06752,0.09 q 0,0.045 -0.337594,0.3376 -0.337595,0.29258 -0.765215,0.65268 -0.427619,0.33759 -0.810226,0.67519 -0.382608,0.33759 -0.495139,0.45012 -1.890529,1.93555 -3.353439,4.36623 -1.462909,2.40817 -2.745768,4.77133 -0.630177,1.14782 -1.080303,2.38567 -0.472632,1.23785 -0.472632,2.58822 0,0.54016 0.09002,1.21534 0.06752,0.67519 0.517645,1.0578 0.18005,0.13504 0.630176,0.29258 0.42762,0.15755 0.675189,0.15755 1.170328,0 2.340656,-0.63018 1.192834,-0.60767 2.295642,-1.50792 1.102809,-0.90025 2.07058,-1.91304 0.990277,-1.01278 1.755491,-1.77799 1.147822,-1.14783 2.228124,-2.27314 1.102809,-1.12532 2.160605,-2.34066 1.260352,-1.4404 2.43068,-2.92582 1.192834,-1.48541 2.43068,-2.94832 0.517645,-0.58516 1.012784,-1.19283 0.517645,-0.60767 1.102809,-1.12532 0.18005,-0.18005 0.337594,-0.20256 0.157544,-0.045 0.405114,-0.045 l 0.04501,0.13504 q -0.225063,0.45012 -0.630176,0.76521 -0.382607,0.29259 -0.720202,0.65269 -1.170327,1.17032 -2.565718,2.99333 -1.395391,1.80051 -2.588225,3.80357 -1.192833,2.00306 -2.00306,4.00612 -0.787721,2.00306 -0.787721,3.556 0,1.1028 0.517645,1.82301 0.517645,0.69769 1.710479,0.69769 0.922758,0 2.093086,-0.58516 1.170327,-0.60767 2.43068,-1.55294 1.282859,-0.94526 2.588225,-2.11559 1.305365,-1.19283 2.453186,-2.36316 1.170328,-1.19284 2.115593,-2.25063 0.945264,-1.0803 1.507922,-1.778 z m 19.400454,0.0225 q -1.14782,1.35038 -2.25063,2.56572 -1.10281,1.21534 -2.29564,2.29564 -1.17033,1.0803 -2.52071,2.02556 -1.35037,0.92276 -2.99333,1.71048 -1.84552,0.90026 -3.57851,1.4179 -1.73298,0.51765 -3.803561,0.56266 2.070581,-0.045 3.803561,-0.56266 1.73299,-0.51764 3.57851,-1.4179 1.64296,-0.78772 2.99333,-1.71048 1.35038,-0.94526 2.52071,-2.02556 1.19283,-1.0803 2.29564,-2.29564 1.10281,-1.21534 2.25063,-2.56572 z m -23.699132,4.43374 q 0.112531,1.01278 0.675189,2.11559 0.540151,1.0803 1.372884,1.98055 0.832733,0.90026 1.868023,1.48542 1.03529,0.56266 2.115592,0.56266 1.21534,0 2.003061,-0.63018 0.810223,-0.63017 1.395393,-1.62045 0.58516,-0.96777 1.0803,-2.31815 0.49514,-1.35038 0.85524,-2.81329 0.38261,-1.48541 0.58516,-2.90331 0.20256,-1.4404 0.20256,-2.56572 0,-1.4179 -0.11253,-2.83579 -0.11253,-1.4179 -0.11253,-2.8583 0,-0.81023 0.09,-1.64296 0.09,-0.83274 0.38261,-1.50792 0.31509,-0.67519 0.90025,-1.10281 0.60767,-0.45013 1.64296,-0.45013 0.27008,0 0.51765,0.157544 0.27007,0.135038 0.27007,0.450126 0,0.40511 -0.60767,1.14782 -0.60767,0.74271 -1.39539,1.53043 -0.76521,0.78772 -1.53043,1.46291 -0.74271,0.67519 -1.05779,0.94526 -1.82301,1.64296 -3.533493,3.37595 -1.687972,1.73298 -3.308426,3.55599 1.620454,-1.82301 3.308426,-3.55599 1.710483,-1.73299 3.533493,-3.37595 0.31508,-0.27007 1.05779,-0.94526 0.76522,-0.67519 1.53043,-1.46291 0.78772,-0.78772 1.39539,-1.53043 0.60767,-0.74271 0.60767,-1.14782 0,-0.315088 -0.27007,-0.450126 -0.24757,-0.157544 -0.51765,-0.157544 -1.03529,0 -1.64296,0.45013 -0.58516,0.42762 -0.90025,1.10281 -0.29258,0.67518 -0.38261,1.50792 -0.09,0.83273 -0.09,1.64296 0,1.4404 0.11253,2.8583 0.11253,1.41789 0.11253,2.83579 0,1.12532 -0.20256,2.56572 -0.20255,1.4179 -0.58516,2.90331 -0.3601,1.46291 -0.85524,2.81329 -0.49514,1.35038 -1.0803,2.31815 -0.58517,0.99028 -1.395393,1.62045 -0.787721,0.63018 -2.003061,0.63018 -1.080302,0 -2.115592,-0.56266 -1.03529,-0.58516 -1.868023,-1.48542 -0.832733,-0.90025 -1.372884,-1.98055 -0.562658,-1.10281 -0.675189,-2.11559 z m 41.164002,-4.56878 q -1.19283,1.50792 -2.56571,3.06086 -1.35038,1.55293 -2.90332,2.92582 -1.53043,1.35037 -3.26341,2.43068 -1.71048,1.05779 -3.62352,1.62045 -0.99027,0.29258 -1.98055,0.51764 -0.99028,0.22507 -2.02557,0.22507 -1.66546,0 -2.61073,-1.01279 -0.94526,-1.03529 -0.94526,-2.65574 0,-0.83273 0.24757,-1.71048 0.22506,-0.90025 0.58516,-1.778 0.3601,-0.87774 0.78772,-1.71048 0.42762,-0.85523 0.78772,-1.59794 0.81023,-1.68797 1.89053,-3.51099 1.10281,-1.82301 2.36316,-3.601 1.26036,-1.778 2.63324,-3.39845 1.37288,-1.64296 2.72326,-2.94833 -1.35038,1.30537 -2.72326,2.94833 -1.37288,1.62045 -2.63324,3.39845 -1.26035,1.77799 -2.36316,3.601 -1.0803,1.82302 -1.89053,3.51099 -0.3601,0.74271 -0.78772,1.59794 -0.42762,0.83274 -0.78772,1.71048 -0.3601,0.87775 -0.58516,1.778 -0.24757,0.87775 -0.24757,1.71048 0,1.62045 0.94526,2.65574 0.94527,1.01279 2.61073,1.01279 1.03529,0 2.02557,-0.22507 0.99028,-0.22506 1.98055,-0.51764 1.91304,-0.56266 3.62352,-1.62045 1.73298,-1.08031 3.26341,-2.43068 1.55294,-1.37289 2.90332,-2.92582 1.37288,-1.55294 2.56571,-3.06086 z m 3.44347,-7.83219 q -3.9161,0.45012 -7.71966,0.83273 -3.80357,0.38261 -7.74217,0.38261 -1.66547,0 -3.30843,-0.0675 -1.62045,-0.09 -3.28592,-0.20256 1.66547,0.11253 3.28592,0.20256 1.64296,0.0675 3.30843,0.0675 3.9386,0 7.74217,-0.38261 3.80356,-0.38261 7.71966,-0.83273 z m 32.004,16.87972 q -1.21534,-0.31509 -1.89053,-1.03529 -0.65268,-0.74271 -0.65268,-2.09308 0,-1.4179 0.7427,-2.76828 0.6977,-1.21534 2.02557,-2.40817 1.32787,-1.19284 2.94833,-2.1381 1.62045,-0.96777 3.35343,-1.55294 1.7555,-0.58516 3.24091,-0.58516 0.76522,0 1.50792,0.20256 0.76522,0.18005 1.35038,0.65268 0.60767,0.45013 0.96777,1.21534 0.38261,0.76521 0.38261,1.93554 0,1.89053 -0.99028,3.71354 -0.96777,1.80051 -2.5207,3.37595 -1.53043,1.55293 -3.42096,2.79078 -1.89053,1.21534 -3.69103,1.95805 -2.38567,0.99027 -5.17645,1.41789 -2.76828,0.42762 -5.7166,0.42762 -1.21534,0 -2.76828,-0.15754 -1.53043,-0.13504 -3.03835,-0.7202 -0.96777,-0.38261 -1.84552,-0.99028 -0.85523,-0.58516 -1.53042,-1.37289 -0.65269,-0.78772 -1.03529,-1.75549 -0.38261,-0.96777 -0.38261,-2.11559 0,-0.94526 0.24757,-2.02557 0.27007,-1.1028 0.7202,-2.11559 0.87775,-2.00306 2.38567,-3.69103 1.53043,-1.68797 3.37594,-3.03835 1.86803,-1.35038 3.87109,-2.36316 2.00306,-1.03529 3.82607,-1.73299 2.1381,-0.81022 3.9386,-1.21534 1.82301,-0.42762 3.44346,-0.67519 0.83274,-0.11253 1.50793,-0.20255 0.67518,-0.11254 1.46291,-0.11254 0.3826,0 0.96777,0.045 0.58516,0.045 1.14782,0.24757 0.56266,0.20255 0.96777,0.60767 0.40511,0.3826 0.40511,1.0803 0,0.67519 -0.40511,1.0803 -0.40511,0.40511 -0.99028,0.63018 -0.58516,0.20255 -1.26035,0.27007 -0.65268,0.0675 -1.19284,0.0675 -1.55293,0 -3.12837,-0.3826 -1.55294,-0.40512 -2.81329,-1.23785 -1.26035,-0.83273 -2.04807,-2.09309 -0.78772,-1.26035 -0.78772,-2.993335 0,-1.755492 0.78772,-3.218401 0.81023,-1.46291 2.11559,-2.655744 1.30537,-1.192833 2.99334,-2.093085 1.68797,-0.922759 3.46597,-1.530429 1.8005,-0.60767 3.53349,-0.922758 1.75549,-0.315088 3.19589,-0.315088 0.87775,0 1.91304,0.135037 1.03529,0.135038 1.91303,0.540152 0.87775,0.405113 1.46291,1.147821 0.58517,0.720202 0.58517,1.935542 0,0.877745 -0.31509,1.620453 -0.31509,0.742708 -0.81023,1.305366 -0.49514,0.562657 -1.12531,0.877745 -0.63018,0.315089 -1.23785,0.315089 -0.51764,0 -1.12532,-0.157544 -0.60767,-0.180051 -0.87774,-0.292582 0.27007,0.112531 0.87774,0.292582 0.60768,0.157544 1.12532,0.157544 0.60767,0 1.23785,-0.315089 0.63017,-0.315088 1.12531,-0.877745 0.49514,-0.562658 0.81023,-1.305366 0.31509,-0.742708 0.31509,-1.620453 0,-1.21534 -0.58517,-1.935542 -0.58516,-0.742708 -1.46291,-1.147821 -0.87774,-0.405114 -1.91303,-0.540152 -1.03529,-0.135037 -1.91304,-0.135037 -1.41789,0 -3.17339,0.315088 -1.75549,0.315088 -3.55599,0.922758 -1.778,0.60767 -3.46597,1.530429 -1.68797,0.900252 -2.99334,2.093085 -1.30536,1.192834 -2.11559,2.67825 -0.78772,1.46291 -0.78772,3.195895 0,1.732985 0.78772,2.993335 0.78772,1.26036 2.04807,2.09309 1.26035,0.83273 2.81329,1.23785 1.57544,0.3826 3.12837,0.3826 0.54016,0 1.19284,-0.0675 0.67519,-0.0675 1.26035,-0.27007 0.58517,-0.22507 0.99028,-0.63018 0.40511,-0.40511 0.40511,-1.0803 0,-0.6977 -0.40511,-1.0803 -0.40511,-0.40512 -0.96777,-0.60767 -0.56266,-0.20256 -1.14782,-0.24757 -0.58517,-0.045 -0.96777,-0.045 -0.78773,0 -1.46291,0.11254 -0.67519,0.09 -1.50793,0.20255 -1.62045,0.24757 -3.44346,0.67519 -1.8005,0.40512 -3.9386,1.21534 -1.82301,0.6977 -3.82607,1.73299 -2.00306,1.01278 -3.87109,2.36316 -1.84551,1.35038 -3.37594,3.03835 -1.50792,1.68797 -2.38567,3.69103 -0.45013,1.01279 -0.7202,2.11559 -0.24757,1.08031 -0.24757,2.02557 0,1.14782 0.38261,2.11559 0.3826,0.96777 1.03529,1.75549 0.67519,0.78773 1.53042,1.37289 0.87775,0.60767 1.84552,0.99028 1.50792,0.58516 3.03835,0.7202 1.55294,0.15754 2.76828,0.15754 2.94832,0 5.7166,-0.42762 2.79078,-0.42762 5.17645,-1.41789 1.8005,-0.74271 3.69103,-1.95805 1.89053,-1.23785 3.42096,-2.79078 1.55293,-1.57544 2.5207,-3.37595 0.99028,-1.82301 0.99028,-3.71354 0,-1.17033 -0.38261,-1.93554 -0.3601,-0.76521 -0.96777,-1.21534 -0.58516,-0.47263 -1.35038,-0.65268 -0.7427,-0.20256 -1.50792,-0.20256 -1.48541,0 -3.24091,0.58516 -1.73298,0.58517 -3.35343,1.55294 -1.62046,0.94526 -2.94833,2.1381 -1.32787,1.19283 -2.02557,2.40817 -0.7427,1.35038 -0.7427,2.76828 0,1.35037 0.65268,2.09308 0.67519,0.7202 1.89053,1.03529 z m 42.76197,-9.00252 q -1.82301,2.27314 -3.89359,4.56878 -2.04807,2.29564 -4.25369,4.20868 -0.58517,0.49514 -1.37289,0.90025 -0.78772,0.38261 -1.57544,0.38261 -1.37288,0 -2.02556,-0.78772 -0.65269,-0.81023 -0.65269,-2.11559 0,-1.57545 0.81023,-3.46597 0.81023,-1.89053 1.98055,-3.78106 1.17033,-1.89053 2.45319,-3.60101 1.30537,-1.71048 2.27314,-2.92582 -1.14782,1.48542 -2.31815,2.94833 -1.14782,1.4404 -2.36316,2.8583 -1.93555,2.25063 -3.87109,4.47875 -1.93554,2.20562 -4.11865,4.23118 -1.01278,0.92276 -2.38567,1.75549 -1.35038,0.81023 -2.76827,0.81023 -1.68798,0 -2.38567,-0.96777 -0.7202,-0.96777 -0.7202,-2.54321 0,-0.6977 0.22506,-1.48542 0.20256,-0.81022 0.54015,-1.59794 0.3376,-0.81023 0.76522,-1.53043 0.40511,-0.74271 0.78772,-1.30537 0.92276,-1.30536 2.45318,-2.94832 1.55294,-1.64296 3.37595,-3.08337 1.84552,-1.4404 3.78106,-2.40817 1.95805,-0.99028 3.66852,-0.99028 1.66547,0 2.67825,0.90025 1.01279,0.90026 1.46291,2.45319 -0.45012,-1.55293 -1.46291,-2.45319 -1.01278,-0.90025 -2.67825,-0.90025 -1.71047,0 -3.66852,0.99028 -1.93554,0.96777 -3.78106,2.40817 -1.82301,1.44041 -3.37595,3.08337 -1.53042,1.64296 -2.45318,2.94832 -0.38261,0.56266 -0.78772,1.30537 -0.42762,0.7202 -0.76522,1.53043 -0.33759,0.78772 -0.54015,1.59794 -0.22506,0.78772 -0.22506,1.48542 0,1.57544 0.7202,2.54321 0.69769,0.96777 2.38567,0.96777 1.41789,0 2.76827,-0.81023 1.37289,-0.83273 2.38567,-1.75549 2.18311,-2.02556 4.11865,-4.23118 1.93554,-2.22812 3.87109,-4.47875 1.21534,-1.4179 2.36316,-2.8583 1.17033,-1.46291 2.31815,-2.94833 -0.96777,1.21534 -2.27314,2.92582 -1.28286,1.71048 -2.45319,3.60101 -1.17032,1.89053 -1.98055,3.78106 -0.81023,1.89052 -0.81023,3.46597 0,1.30536 0.65269,2.11559 0.65268,0.78772 2.02556,0.78772 0.78772,0 1.57544,-0.38261 0.78772,-0.40511 1.37289,-0.90025 2.20562,-1.91304 4.25369,-4.20868 2.07058,-2.29564 3.89359,-4.56878 z m 17.46487,-0.045 q -1.19283,1.50792 -2.56572,3.06086 -1.35037,1.55293 -2.90331,2.92582 -1.53043,1.35037 -3.26341,2.43068 -1.71048,1.05779 -3.62352,1.62045 -0.99027,0.29258 -1.98055,0.51764 -0.99028,0.22507 -2.02557,0.22507 -1.66546,0 -2.61073,-1.01279 -0.94526,-1.03529 -0.94526,-2.65574 0,-0.83273 0.24757,-1.71048 0.22506,-0.90025 0.58516,-1.778 0.3601,-0.87774 0.78772,-1.71048 0.42762,-0.85523 0.78772,-1.59794 0.81023,-1.68797 1.89053,-3.51099 1.10281,-1.82301 2.36316,-3.601 1.26035,-1.778 2.63324,-3.39845 1.37288,-1.64296 2.72326,-2.94833 -1.35038,1.30537 -2.72326,2.94833 -1.37289,1.62045 -2.63324,3.39845 -1.26035,1.77799 -2.36316,3.601 -1.0803,1.82302 -1.89053,3.51099 -0.3601,0.74271 -0.78772,1.59794 -0.42762,0.83274 -0.78772,1.71048 -0.3601,0.87775 -0.58516,1.778 -0.24757,0.87775 -0.24757,1.71048 0,1.62045 0.94526,2.65574 0.94527,1.01279 2.61073,1.01279 1.03529,0 2.02557,-0.22507 0.99028,-0.22506 1.98055,-0.51764 1.91304,-0.56266 3.62352,-1.62045 1.73298,-1.08031 3.26341,-2.43068 1.55294,-1.37289 2.90331,-2.92582 1.37289,-1.55294 2.56572,-3.06086 z m 3.44347,-7.83219 q -3.9161,0.45012 -7.71966,0.83273 -3.80357,0.38261 -7.74217,0.38261 -1.66547,0 -3.30843,-0.0675 -1.62045,-0.09 -3.28592,-0.20256 1.66547,0.11253 3.28592,0.20256 1.64296,0.0675 3.30843,0.0675 3.9386,0 7.74217,-0.38261 3.80356,-0.38261 7.71966,-0.83273 z"
       id="text2"
       transform="scale(0.84836666,1.1787356)"
       aria-label="Just Eat" />
  </g>
</svg>
